<?xml version="1.0" encoding="UTF-8"?>
<!DOCTYPE svg PUBLIC "-//W3C//DTD SVG 1.1//EN" "http://www.w3.org/Graphics/SVG/1.1/DTD/svg11.dtd">
<svg xmlns="http://www.w3.org/2000/svg" version="1.1" width="500px" height="500px" style="shape-rendering:geometricPrecision; text-rendering:geometricPrecision; image-rendering:optimizeQuality; fill-rule:evenodd; clip-rule:evenodd" xmlns:xlink="http://www.w3.org/1999/xlink">
<g><path style="opacity:1" fill="#fffdfc" d="M -0.5,-0.5 C 13.8333,-0.5 28.1667,-0.5 42.5,-0.5C 20.0629,4.60251 5.72952,18.2692 -0.5,40.5C -0.5,26.8333 -0.5,13.1667 -0.5,-0.5 Z"/></g>
<g><path style="opacity:1" fill="#f97316" d="M 42.5,-0.5 C 105.167,-0.5 167.833,-0.5 230.5,-0.5C 239.956,1.39141 248.623,5.22475 256.5,11C 334,88.5 411.5,166 489,243.5C 493.967,250.596 497.467,258.263 499.5,266.5C 499.5,271.167 499.5,275.833 499.5,280.5C 497.626,289.925 493.793,298.592 488,306.5C 427.167,367.333 366.333,428.167 305.5,489C 297.868,494.371 289.534,497.871 280.5,499.5C 276.167,499.5 271.833,499.5 267.5,499.5C 258.752,497.965 250.752,494.465 243.5,489C 166,411.5 88.5,334 11,256.5C 4.92363,248.751 1.09029,240.085 -0.5,230.5C -0.5,167.167 -0.5,103.833 -0.5,40.5C 5.72952,18.2692 20.0629,4.60251 42.5,-0.5 Z"/></g>
<g><path style="opacity:1" fill="#fffefe" d="M 230.5,-0.5 C 320.167,-0.5 409.833,-0.5 499.5,-0.5C 499.5,88.5 499.5,177.5 499.5,266.5C 497.467,258.263 493.967,250.596 489,243.5C 411.5,166 334,88.5 256.5,11C 248.623,5.22475 239.956,1.39141 230.5,-0.5 Z"/></g>
<g><path style="opacity:1" fill="#fffefd" d="M 79.5,49.5 C 103.19,48.0774 118.024,58.7441 124,81.5C 125.254,104.912 114.421,119.079 91.5,124C 69.9061,125.071 56.0728,115.238 50,94.5C 47.8275,71.4882 57.6608,56.4882 79.5,49.5 Z"/></g>
<g><path style="opacity:1" fill="#fffbf9" d="M 215.5,190.5 C 220.167,190.5 224.833,190.5 229.5,190.5C 243.364,228.757 257.03,267.091 270.5,305.5C 265.5,305.5 260.5,305.5 255.5,305.5C 252.031,293.761 248.365,282.095 244.5,270.5C 229.833,270.5 215.167,270.5 200.5,270.5C 197.078,282.016 193.078,293.349 188.5,304.5C 183.533,305.662 178.533,305.829 173.5,305C 187.6,266.865 201.6,228.698 215.5,190.5 Z"/></g>
<g><path style="opacity:1" fill="#fffcfa" d="M 277.5,191.5 C 291.167,191.5 304.833,191.5 318.5,191.5C 318.813,194.247 318.48,196.914 317.5,199.5C 313.678,200.662 309.844,201.662 306,202.5C 305.167,233.172 305.333,263.839 306.5,294.5C 310.155,295.332 313.821,296.165 317.5,297C 318.444,299.719 318.777,302.552 318.5,305.5C 304.833,305.5 291.167,305.5 277.5,305.5C 277.223,302.552 277.556,299.719 278.5,297C 282.447,295.846 286.447,295.013 290.5,294.5C 290.5,263.833 290.5,233.167 290.5,202.5C 286.429,201.816 282.429,200.816 278.5,199.5C 277.52,196.914 277.187,194.247 277.5,191.5 Z"/></g>
<g><path style="opacity:1" fill="#f9771f" d="M 221.5,207.5 C 222.117,207.611 222.617,207.944 223,208.5C 227.874,224.955 233.041,241.288 238.5,257.5C 227.833,257.5 217.167,257.5 206.5,257.5C 211.908,240.944 216.908,224.278 221.5,207.5 Z"/></g>
<g><path style="opacity:1" fill="#fffefe" d="M -0.5,230.5 C 1.09029,240.085 4.92363,248.751 11,256.5C 88.5,334 166,411.5 243.5,489C 250.752,494.465 258.752,497.965 267.5,499.5C 178.167,499.5 88.8333,499.5 -0.5,499.5C -0.5,409.833 -0.5,320.167 -0.5,230.5 Z"/></g>
<g><path style="opacity:1" fill="#fffefe" d="M 499.5,280.5 C 499.5,353.5 499.5,426.5 499.5,499.5C 426.5,499.5 353.5,499.5 280.5,499.5C 289.534,497.871 297.868,494.371 305.5,489C 366.333,428.167 427.167,367.333 488,306.5C 493.793,298.592 497.626,289.925 499.5,280.5 Z"/></g>
</svg>
